<svg width="47" height="43" viewBox="0 0 47 43" fill="none" xmlns="http://www.w3.org/2000/svg">
<mask id="mask0_408_823" style="mask-type:alpha" maskUnits="userSpaceOnUse" x="0" y="0" width="47" height="43">
<rect width="47" height="43" fill="#D9D9D9"/>
</mask>
<g mask="url(#mask0_408_823)">
<path fill-rule="evenodd" clip-rule="evenodd" d="M36.57 7.57217C32.9864 3.98077 28.2205 2.00153 23.1415 2C12.6779 2 4.16345 10.5242 4.15886 21.0001C4.15734 24.3483 5.03108 27.6185 6.69304 30.5002L4 40.3475L14.0634 37.7059C16.8359 39.2202 19.9581 40.0171 23.1354 40.0186H23.143C33.6051 40.0186 42.1211 31.4944 42.1257 21.017C42.1272 15.9388 40.1536 11.1636 36.57 7.57217ZM23.143 36.8081H23.1369C20.3064 36.8066 17.5294 36.0464 15.1067 34.6071L14.5308 34.2644L8.55968 35.8322L10.1529 30.0046L9.77713 29.4066C8.19766 26.892 7.36363 23.9858 7.36515 21.0017C7.36821 12.2939 14.4468 5.20901 23.1491 5.20901C27.3636 5.21054 31.3245 6.85481 34.3032 9.8405C37.2819 12.8262 38.9209 16.7939 38.9194 21.0139C38.9163 29.7232 31.8393 36.8081 23.143 36.8081ZM31.7965 24.9785C31.3214 24.7414 28.9904 23.5927 28.5551 23.4337C28.1197 23.2746 27.8035 23.1966 27.4873 23.6707C27.1711 24.1464 26.2623 25.2156 25.9858 25.5322C25.7093 25.8488 25.4328 25.8886 24.9577 25.6515C24.4827 25.4144 22.9551 24.9127 21.1435 23.2945C19.7336 22.0356 18.7819 20.4801 18.5054 20.0059C18.229 19.5318 18.4764 19.2733 18.7132 19.0362C18.927 18.8236 19.1867 18.481 19.425 18.2041C19.6618 17.9273 19.7412 17.7284 19.8986 17.4118C20.0574 17.0952 19.978 16.8183 19.8588 16.5797C19.7397 16.3426 18.7911 14.0055 18.397 13.0541C18.0121 12.1287 17.621 12.2541 17.3292 12.2388C17.0528 12.2251 16.7366 12.222 16.4204 12.222C16.1042 12.222 15.5909 12.3413 15.1556 12.8155C14.7202 13.2912 13.4951 14.4399 13.4951 16.777C13.4951 19.1142 15.1953 21.3718 15.432 21.6884C15.6688 22.0051 18.7773 26.8017 23.5341 28.8575C24.666 29.3469 25.5489 29.6391 26.2378 29.8578C27.3743 30.2188 28.4084 30.1683 29.2257 30.0459C30.1376 29.9098 32.0317 28.8972 32.4274 27.7883C32.823 26.6794 32.823 25.728 32.7039 25.5307C32.5878 25.3364 32.2716 25.2171 31.7965 24.9785Z" fill="#6985FF"/>
</g>
</svg>
