<svg width="47" height="43" viewBox="0 0 47 43" fill="none" xmlns="http://www.w3.org/2000/svg">
<mask id="mask0_408_842" style="mask-type:alpha" maskUnits="userSpaceOnUse" x="0" y="0" width="47" height="43">
<rect width="47" height="43" fill="#D9D9D9"/>
</mask>
<g mask="url(#mask0_408_842)">
<path d="M40.8887 7.62836C40.7633 7.25732 40.6144 7.15736 40.3802 7.06756C39.8699 6.87102 39.0049 7.16583 39.0049 7.16583C39.0049 7.16583 8.37545 18.3159 6.62548 19.5493C6.24905 19.8153 6.1219 19.9695 6.06 20.1508C5.75718 21.0301 6.69909 21.4181 6.69909 21.4181L14.594 24.0239C14.594 24.0239 14.8885 24.0679 14.9939 24.0002C16.789 22.8514 33.0624 12.4452 34.0026 12.0945C34.1515 12.0504 34.2603 12.1013 34.2318 12.2046C33.8554 13.5397 19.7218 26.262 19.7218 26.262C19.7218 26.262 19.6683 26.3298 19.6331 26.4094L19.6147 26.3976L18.8786 34.3285C18.8786 34.3285 18.5708 36.7581 20.9699 34.3285C22.663 32.6139 24.3008 31.1805 25.1189 30.4825C27.8326 32.3801 30.7553 34.481 32.0151 35.5789C32.6475 36.1312 33.1778 36.2193 33.6145 36.204C34.8107 36.1583 35.1453 34.8266 35.1453 34.8266C35.1453 34.8266 40.7265 12.0758 40.9138 9.02784C40.9322 8.72964 40.9573 8.53989 40.959 8.33318C40.9607 8.05024 40.9339 7.76391 40.8887 7.62836Z" fill="#6985FF"/>
</g>
</svg>
