<svg width="47" height="43" viewBox="0 0 47 43" fill="none" xmlns="http://www.w3.org/2000/svg">
<mask id="mask0_408_835" style="mask-type:alpha" maskUnits="userSpaceOnUse" x="0" y="0" width="47" height="43">
<rect width="47" height="43" fill="#D9D9D9"/>
</mask>
<g mask="url(#mask0_408_835)">
<path d="M25.1549 17.0385C25.5933 16.5445 25.9553 16.0428 26.4075 15.6176C27.7945 14.3083 29.435 13.649 31.349 13.6643C32.4015 13.6735 33.4417 13.75 34.456 14.0437C36.7763 14.7151 38.1267 16.315 38.7698 18.5864C39.2525 20.2888 39.3411 22.0371 39.3441 23.79C39.3502 27.4884 39.3334 31.1869 39.3411 34.8869C39.3411 35.2326 39.2448 35.3244 38.9042 35.3213C37.0009 35.306 35.0976 35.3045 33.1943 35.3213C32.8598 35.3244 32.7864 35.2204 32.788 34.9037C32.7987 31.3842 32.8017 27.8647 32.7895 24.3452C32.7864 23.4627 32.7299 22.5816 32.484 21.7236C32.0288 20.1435 30.8999 19.339 29.2471 19.4262C26.991 19.5455 25.8163 20.6651 25.5291 22.9625C25.4604 23.5116 25.4283 24.0607 25.4283 24.6129C25.4314 28.036 25.4253 31.4592 25.4375 34.8823C25.439 35.2234 25.3535 35.3244 25.0052 35.3213C23.0881 35.3045 21.1711 35.306 19.254 35.3198C18.947 35.3213 18.8584 35.2387 18.8584 34.9282C18.8676 28.1507 18.8676 21.3748 18.8584 14.5974C18.8584 14.2624 18.9684 14.1844 19.2846 14.1859C21.1054 14.1997 22.9247 14.2012 24.7455 14.1844C25.08 14.1813 25.1671 14.2899 25.1595 14.6081C25.1427 15.4172 25.1549 16.2279 25.1549 17.0385Z" fill="#6985FF"/>
<path d="M14.7287 24.7835C14.7287 28.1362 14.7226 31.489 14.7363 34.8418C14.7379 35.215 14.6447 35.3267 14.2597 35.3236C12.358 35.3022 10.4547 35.3068 8.55288 35.3206C8.24737 35.3221 8.15572 35.2472 8.15725 34.9305C8.16641 28.1424 8.16641 21.3542 8.15877 14.566C8.15877 14.2846 8.22598 14.1852 8.52385 14.1867C10.4531 14.1989 12.3839 14.2035 14.3132 14.1836C14.6844 14.1806 14.7348 14.3244 14.7333 14.6425C14.7256 18.0228 14.7287 21.4031 14.7287 24.7835Z" fill="#6985FF"/>
<path d="M15.2538 7.45991C15.2553 9.56458 13.5491 11.2792 11.4518 11.2807C9.38195 11.2807 7.66042 9.56458 7.65431 7.49356C7.6482 5.39807 9.36668 3.67273 11.4609 3.67579C13.5384 3.67731 15.2507 5.38583 15.2538 7.45991Z" fill="#6985FF"/>
</g>
</svg>
