<svg width="47" height="43" viewBox="0 0 47 43" fill="none" xmlns="http://www.w3.org/2000/svg">
<path d="M23.691 7.1875C28.415 7.1875 28.9735 7.2051 30.8394 7.28991C32.5645 7.36832 33.5007 7.65634 34.1248 7.89957C34.9505 8.2212 35.5394 8.60363 36.1587 9.22289C36.778 9.84215 37.1605 10.431 37.4821 11.2567C37.7238 11.8807 38.0118 12.8168 38.0918 14.5418C38.1767 16.4076 38.1943 16.966 38.1943 21.6897C38.1943 26.4133 38.1767 26.9718 38.0918 28.8375C38.0134 30.5625 37.7254 31.4986 37.4821 32.1226C37.1605 32.9483 36.778 33.5372 36.1587 34.1564C35.5394 34.7757 34.9505 35.1581 34.1248 35.4798C33.5007 35.7214 32.5645 36.0094 30.8394 36.0894C28.9751 36.1742 28.415 36.1918 23.691 36.1918C18.967 36.1918 18.4085 36.1742 16.5426 36.0894C14.8175 36.011 13.8813 35.723 13.2572 35.4798C12.4315 35.1581 11.8426 34.7757 11.2233 34.1564C10.604 33.5372 10.2215 32.9483 9.89986 32.1226C9.65822 31.4986 9.37017 30.5625 9.29016 28.8375C9.20534 26.9718 9.18774 26.4133 9.18774 21.6897C9.18774 16.966 9.20534 16.4076 9.29016 14.5418C9.36857 12.8168 9.65662 11.8807 9.89986 11.2567C10.2215 10.431 10.604 9.84215 11.2233 9.22289C11.8426 8.60363 12.4315 8.2212 13.2572 7.89957C13.8813 7.65794 14.8175 7.36992 16.5426 7.28991C18.4085 7.2051 18.9686 7.1875 23.691 7.1875ZM23.691 4C18.887 4 18.2837 4.0208 16.397 4.10721C14.5134 4.19362 13.2284 4.49285 12.1034 4.92969C10.94 5.38093 9.95427 5.98579 8.9701 6.96988C7.98594 7.95397 7.38103 8.93966 6.92976 10.103C6.49288 11.2279 6.19363 12.5144 6.10722 14.3962C6.0208 16.2828 6 16.8844 6 21.6897C6 26.4933 6.0208 27.0966 6.10722 28.9832C6.19363 30.8665 6.49288 32.1514 6.92976 33.2764C7.38103 34.4397 7.98594 35.4254 8.9701 36.4095C9.95427 37.3935 10.94 37.9984 12.1034 38.4496C13.2284 38.8865 14.515 39.1857 16.397 39.2721C18.2837 39.3585 18.887 39.3793 23.691 39.3793C28.495 39.3793 29.0983 39.3585 30.985 39.2721C32.8686 39.1857 34.1536 38.8865 35.2786 38.4496C36.442 37.9984 37.4277 37.3935 38.4119 36.4095C39.3961 35.4254 40.001 34.4397 40.4522 33.2764C40.8891 32.1514 41.1884 30.8649 41.2748 28.9832C41.3612 27.0966 41.382 26.4933 41.382 21.6897C41.382 16.886 41.3612 16.2828 41.2748 14.3962C41.1884 12.5128 40.8891 11.2279 40.4522 10.103C40.001 8.93966 39.3961 7.95397 38.4119 6.96988C37.4277 5.98579 36.442 5.38093 35.2786 4.92969C34.1536 4.49285 32.867 4.19362 30.985 4.10721C29.0983 4.0192 28.4966 4 23.691 4Z" fill="#6985FF"/>
<path d="M23.6912 12.6055C18.6743 12.6055 14.6064 16.6715 14.6064 21.6895C14.6064 26.7076 18.6727 30.7736 23.6912 30.7736C28.708 30.7736 32.7759 26.7076 32.7759 21.6895C32.7759 16.6715 28.708 12.6055 23.6912 12.6055ZM23.6912 27.5845C20.4346 27.5845 17.7942 24.9443 17.7942 21.6879C17.7942 18.4316 20.4346 15.7914 23.6912 15.7914C26.9477 15.7914 29.5882 18.4316 29.5882 21.6879C29.5882 24.9443 26.9477 27.5845 23.6912 27.5845Z" fill="#6985FF"/>
<path d="M33.1343 14.3698C34.3071 14.3698 35.2579 13.4191 35.2579 12.2464C35.2579 11.0737 34.3071 10.123 33.1343 10.123C31.9615 10.123 31.0107 11.0737 31.0107 12.2464C31.0107 13.4191 31.9615 14.3698 33.1343 14.3698Z" fill="#6985FF"/>
</svg>
