<svg width="47" height="43" viewBox="0 0 47 43" fill="none" xmlns="http://www.w3.org/2000/svg">
<mask id="mask0_408_830" style="mask-type:alpha" maskUnits="userSpaceOnUse" x="0" y="0" width="47" height="43">
<rect width="47" height="43" fill="#D9D9D9"/>
</mask>
<g mask="url(#mask0_408_830)">
<path d="M8 9L24.0892 22.6295L40.1801 9H8Z" fill="#6985FF"/>
<path d="M24.5664 25.1503C24.5613 25.1555 24.5527 25.1573 24.5475 25.1607C24.4494 25.2408 24.3409 25.3018 24.2273 25.3453C24.2032 25.3558 24.1791 25.3627 24.1533 25.3697C24.0379 25.4063 23.9174 25.4324 23.7969 25.4324H23.7952H23.7935C23.673 25.4324 23.5525 25.4063 23.4371 25.3697C23.4113 25.361 23.3872 25.354 23.3631 25.3453C23.2495 25.3001 23.141 25.2408 23.0429 25.1607C23.0377 25.1555 23.0291 25.1538 23.024 25.1503L6 10.7285V33.3468H41.5921V10.7285L24.5664 25.1503Z" fill="#6985FF"/>
</g>
</svg>
