<svg width="173" height="38" viewBox="0 0 173 38" fill="none" xmlns="http://www.w3.org/2000/svg">
<path d="M74.3434 25.551H78.6018V28.9846H73.1104C70.7815 28.9846 68.9434 27.1271 68.9434 24.8305V4.2962H73.0648V9.36222H77.5743V12.7958H73.0648V24.2901C73.0648 24.9881 73.6356 25.551 74.3434 25.551ZM28.5629 21.7233C28.5629 24.3126 26.9417 26.0688 24.4415 26.0688C21.9413 26.0688 20.2744 24.3126 20.2744 21.7233V9.36222H16.153V21.7233C16.153 24.3126 14.4976 26.0688 11.986 26.0688C9.47433 26.0688 7.86459 24.3126 7.86459 21.7233V9.36222H7.83034H3.69754H0.866211V12.7958H3.69754V21.6108C3.69754 26.2828 6.73435 29.3449 11.3809 29.3449C14.5319 29.3449 16.9979 27.9489 18.2195 25.641C19.4296 27.9489 21.8956 29.3449 25.058 29.3449C29.7045 29.3449 32.7414 26.2828 32.7414 21.6108V9.36222H28.5743V21.7233H28.5629ZM62.1163 1.66187C60.5408 1.66187 59.4904 2.61879 59.4904 4.05979C59.4904 5.45576 60.5408 6.44645 62.1163 6.44645C63.6575 6.44645 64.7421 5.44451 64.7421 4.05979C64.7421 2.61879 63.6575 1.66187 62.1163 1.66187ZM47.503 9.00196C44.7516 9.00196 42.5254 10.1953 41.2353 12.3118V1.38042H37.1139V28.9734H41.2353V17.4904C41.2353 14.3382 43.2104 12.2667 46.2929 12.2667C49.284 12.2667 51.2248 14.3382 51.2248 17.4904V28.9734H55.3919V16.9388C55.3919 12.1992 52.0811 9.00196 47.503 9.00196ZM60.0499 28.9846H64.1713V9.36222H60.0499V28.9846ZM150.287 19.1791V28.9846H146.165V26.2715C144.544 28.1403 141.873 29.3336 138.847 29.3336C133.265 29.3336 129.177 25.0669 129.177 19.1678C129.177 13.2687 133.584 9.00196 139.726 9.00196C145.868 9.00196 150.287 13.2687 150.287 19.1791ZM146.154 19.1791C146.154 15.3514 143.482 12.5594 139.761 12.5594C136.084 12.5594 133.413 15.3514 133.413 19.1791C133.413 23.0517 136.084 25.7987 139.761 25.7987C143.482 25.7874 146.154 23.0405 146.154 19.1791ZM104.689 5.02795L106.458 7.23448C111.744 3.0353 119.804 3.04657 125.09 7.27952L126.86 5.06172C120.604 0.0857603 110.956 0.0745038 104.689 5.02795ZM126.346 19.3254C126.346 25.1119 122.179 29.3787 116.322 29.3787C113.411 29.3787 110.945 28.1853 109.37 26.3052V36.989H105.237V19.2016C105.237 13.3025 109.644 9.03574 115.786 9.03574C121.939 9.03574 126.346 13.3025 126.346 19.3254ZM122.099 19.2016C122.099 15.3401 119.428 12.5819 115.751 12.5819C112.03 12.5819 109.358 15.3401 109.358 19.2016C109.358 23.0292 112.03 25.8212 115.751 25.8212C119.428 25.8212 122.099 23.0292 122.099 19.2016ZM168.496 9.36222V20.0121C168.496 23.1643 166.51 25.2358 163.439 25.2358C160.447 25.2358 158.507 23.1643 158.507 20.0121V9.36222H154.385H151.554V12.7958H154.385V20.5638C154.385 25.3146 157.696 28.5005 162.183 28.5005C164.968 28.5005 167.195 27.3072 168.485 25.2358V28.9058C168.485 32.058 166.544 34.0506 163.553 34.0506C161.11 34.0506 159.409 32.6097 158.883 30.3356H155.002C155.755 34.5347 159.077 37.3267 163.713 37.3267C169.056 37.3267 172.652 33.8593 172.652 28.6694V9.36222H168.496ZM102.029 19.2128C102.029 19.6181 101.983 20.0459 101.903 20.4512H84.9152C85.4404 23.716 88.0319 25.99 91.4683 25.99C93.9001 25.99 95.9665 24.6503 96.994 22.7815H101.367C99.9166 26.643 95.9779 29.3336 91.4341 29.3336C85.292 29.3336 80.7938 25.0669 80.7938 19.1678C80.7938 13.2687 85.2805 9.00196 91.4341 9.00196C97.5762 9.00196 101.983 13.2687 102.029 19.2128ZM98.0215 17.299C97.3365 14.3832 94.7449 12.3568 91.4683 12.3568C88.2374 12.3568 85.76 14.3945 85.0408 17.299H98.0215Z" fill="#6985FF"/>
</svg>
